<svg width="60.000000" height="60.000000" viewBox="0 0 60 60" fill="none" xmlns="http://www.w3.org/2000/svg" xmlns:xlink="http://www.w3.org/1999/xlink">
	<desc>
			Created with Pixso.
	</desc>
	<defs>
		<clipPath id="clip180_316">
			<rect id="Icon" width="20.351828" height="20.351828" transform="translate(20.814331 19.889404)" fill="white" fill-opacity="0"/>
		</clipPath>
	</defs>
	<rect id="Vector" width="60.000000" height="60.000000" fill="#FFFFFF" fill-opacity="0"/>
	<path id="Vector" d="M49.7834 24.084C49.3635 10.9326 38.7071 0.319824 25.5115 0C25.1716 0 24.8917 0.259766 24.8917 0.599609L24.8717 9.43359C24.8717 9.87354 24.5318 10.2131 24.092 10.2332C10.9363 10.6328 0.319885 21.3059 0 34.4971C0 34.8367 0.259888 35.1167 0.599792 35.1167L9.41687 35.1365C9.85669 35.1365 10.1966 35.4763 10.2166 35.916C10.6365 49.0673 21.3129 59.6802 34.4885 60C34.8284 60 35.1083 59.7402 35.1083 59.4004L35.1283 50.5663C35.1283 50.1266 35.4682 49.7869 35.908 49.7668C49.0637 49.347 59.6801 38.6743 60 25.5029C60 25.1633 59.7401 24.8833 59.4002 24.8833L50.5831 24.8635C50.1433 24.8635 49.8034 24.5237 49.7834 24.084ZM34.2486 49.7069C26.7711 49.2672 20.7731 43.1912 20.4932 35.6763C20.4732 35.3564 20.2133 35.0967 19.8934 35.0967L11.0963 35.0767C10.6365 35.0767 10.2766 34.6968 10.2966 34.2371C10.7365 26.7622 16.8144 20.7661 24.3319 20.4863C24.6518 20.4663 24.9117 20.2065 24.9117 19.8867L24.9317 11.0725C24.9317 10.613 25.3116 10.2532 25.7714 10.2732C33.2489 10.7129 39.2469 16.7888 39.5269 24.3037C39.5468 24.6235 39.8067 24.8833 40.1266 24.8833L48.9237 24.9033C49.3835 24.9033 49.7434 25.2832 49.7234 25.7429C49.2836 33.4177 42.9057 39.5137 35.1283 39.5137L35.1083 48.9073C35.0883 49.3671 34.7084 49.7268 34.2486 49.7069Z" fill="#E60000" fill-opacity="1.000000" fill-rule="evenodd"/>
	<g clip-path="url(#clip180_316)">
		<path id="Rectangle 511 (Stroke)" d="M24.6304 24.6829C24.6304 23.4734 25.9269 22.7068 26.9866 23.2896L36.7729 28.6721C37.8713 29.2761 37.8713 30.8545 36.7729 31.4585L26.9866 36.8411C25.9269 37.4238 24.6304 36.6572 24.6304 35.4478L24.6304 24.6829Z" fill="#FFFFFF" fill-opacity="1.000000" fill-rule="evenodd"/>
	</g>
</svg>
