<svg width="199.000000" height="60.000000" viewBox="0 0 199 60" fill="none" xmlns="http://www.w3.org/2000/svg" xmlns:xlink="http://www.w3.org/1999/xlink">
	<desc>
			Created with Pixso.
	</desc>
	<defs>
		<clipPath id="clip180_316">
			<rect id="Icon" width="20.351828" height="20.351828" transform="translate(20.814331 19.889404)" fill="white" fill-opacity="0"/>
		</clipPath>
	</defs>
	<rect id="Vector" width="60.000000" height="60.000000" fill="#FFFFFF" fill-opacity="0"/>
	<path id="Vector" d="M49.7834 24.084C49.3635 10.9326 38.7071 0.319824 25.5115 0C25.1716 0 24.8917 0.259766 24.8917 0.599609L24.8717 9.43359C24.8717 9.87354 24.5318 10.2131 24.092 10.2332C10.9363 10.6328 0.319885 21.3059 0 34.4971C0 34.8367 0.259888 35.1167 0.599792 35.1167L9.41687 35.1365C9.85669 35.1365 10.1966 35.4763 10.2166 35.916C10.6365 49.0673 21.3129 59.6802 34.4885 60C34.8284 60 35.1083 59.7402 35.1083 59.4004L35.1283 50.5663C35.1283 50.1266 35.4682 49.7869 35.908 49.7668C49.0637 49.347 59.6801 38.6743 60 25.5029C60 25.1633 59.7401 24.8833 59.4002 24.8833L50.5831 24.8635C50.1433 24.8635 49.8034 24.5237 49.7834 24.084ZM34.2486 49.7069C26.7711 49.2672 20.7731 43.1912 20.4932 35.6763C20.4732 35.3564 20.2133 35.0967 19.8934 35.0967L11.0963 35.0767C10.6365 35.0767 10.2766 34.6968 10.2966 34.2371C10.7365 26.7622 16.8144 20.7661 24.3319 20.4863C24.6518 20.4663 24.9117 20.2065 24.9117 19.8867L24.9317 11.0725C24.9317 10.613 25.3116 10.2532 25.7714 10.2732C33.2489 10.7129 39.2469 16.7888 39.5269 24.3037C39.5468 24.6235 39.8067 24.8833 40.1266 24.8833L48.9237 24.9033C49.3835 24.9033 49.7434 25.2832 49.7234 25.7429C49.2836 33.4177 42.9057 39.5137 35.1283 39.5137L35.1083 48.9073C35.0883 49.3671 34.7084 49.7268 34.2486 49.7069Z" fill="#E60000" fill-opacity="1.000000" fill-rule="evenodd"/>
	<g clip-path="url(#clip180_316)">
		<path id="Rectangle 511 (Stroke)" d="M24.6304 24.6829C24.6304 23.4734 25.9269 22.7068 26.9866 23.2896L36.7729 28.6721C37.8713 29.2761 37.8713 30.8545 36.7729 31.4585L26.9866 36.8411C25.9269 37.4238 24.6304 36.6572 24.6304 35.4478L24.6304 24.6829Z" fill="#FFFFFF" fill-opacity="1.000000" fill-rule="evenodd"/>
	</g>
	<path id="StreamVibe" d="M169.656 22.3274C169.656 22.6514 169.593 22.9539 169.467 23.2354C169.349 23.5166 169.185 23.7639 168.974 23.9771C168.764 24.1816 168.515 24.3479 168.229 24.4756C167.951 24.595 167.653 24.6548 167.333 24.6548C167.013 24.6548 166.71 24.595 166.424 24.4756C166.146 24.3479 165.902 24.1816 165.691 23.9771C165.489 23.7639 165.325 23.5166 165.199 23.2354C165.081 22.9539 165.022 22.6514 165.022 22.3274C165.022 22.012 165.081 21.7136 165.199 21.4321C165.325 21.1423 165.489 20.895 165.691 20.6904C165.902 20.4773 166.146 20.3113 166.424 20.1919C166.71 20.064 167.013 20 167.333 20C167.653 20 167.951 20.064 168.229 20.1919C168.515 20.3113 168.764 20.4773 168.974 20.6904C169.185 20.895 169.349 21.1423 169.467 21.4321C169.593 21.7136 169.656 22.012 169.656 22.3274ZM86.056 39.7441C85.2227 39.7441 84.4398 39.5864 83.7074 39.271C82.9751 38.9473 82.3312 38.5081 81.7756 37.9539Q81.5441 37.7158 81.3396 37.4563L81.3395 37.4563Q80.8195 36.7961 80.4751 35.9976Q80.3832 35.7788 80.3094 35.5542Q80.0079 34.636 80.0079 33.6189L80.0079 29.5525L78.3286 29.5525L78.3286 26.0742L80.0079 26.0742L80.0079 20.6011L83.4423 20.6011L83.4423 26.0742L88.6697 26.0742L88.6697 29.5525L83.4423 29.5525L83.4423 33.6189C83.4423 33.9856 83.5096 34.3308 83.6443 34.6548C83.7791 34.9702 83.9642 35.2473 84.2 35.4858C84.4355 35.7246 84.7134 35.9165 85.0332 36.0613C85.3531 36.1978 85.694 36.2659 86.056 36.2659L88.6697 36.2659L88.6697 39.7441L86.056 39.7441ZM185.237 32.7749C185.237 33.8491 185.056 34.8296 184.694 35.7161C184.332 36.6028 183.84 37.3657 183.217 38.0051C182.594 38.636 181.862 39.1262 181.02 39.4756C180.187 39.8252 179.29 40 178.33 40C177.379 40 176.483 39.821 175.641 39.4629C174.808 39.105 174.075 38.6062 173.444 37.9668C172.821 37.3274 172.329 36.5686 171.967 35.6904C171.605 34.804 171.424 33.832 171.424 32.7749L171.424 20.6011L174.883 20.6011L174.883 26.9949C175.069 26.7561 175.292 26.543 175.553 26.3555C175.822 26.168 176.108 26.0144 176.411 25.895C176.723 25.7759 177.042 25.6863 177.371 25.6267C177.699 25.5583 178.019 25.5244 178.33 25.5244C179.29 25.5244 180.187 25.7075 181.02 26.0742C181.862 26.4321 182.594 26.9353 183.217 27.583C183.84 28.231 184.332 28.9983 184.694 29.885C185.056 30.7629 185.237 31.7263 185.237 32.7749ZM63 26.9053Q63 26.0127 63.2642 25.2063L63.2642 25.2063Q63.3368 24.9849 63.4293 24.7698Q63.7706 23.9768 64.3034 23.3455Q64.4408 23.1826 64.5909 23.0308Q64.8823 22.7356 65.2103 22.4895L65.2103 22.4895Q65.7211 22.1062 66.3207 21.8416Q66.5677 21.7324 66.8235 21.6506L66.8235 21.6506Q67.5875 21.4067 68.4294 21.4067L76.7376 21.4067L76.7376 25.0767L68.4294 25.0767C68.1769 25.0767 67.9412 25.1235 67.7223 25.2173Q67.5722 25.2817 67.4379 25.3701L67.4379 25.3701L67.4379 25.3701Q67.2785 25.4751 67.1415 25.6138C66.9816 25.7759 66.8553 25.9675 66.7627 26.1892C66.6701 26.4109 66.6238 26.6497 66.6238 26.9053C66.6238 27.1611 66.6701 27.4041 66.7627 27.6343C66.8553 27.856 66.9816 28.052 67.1415 28.2224Q67.2307 28.3083 67.3293 28.3813Q67.51 28.5151 67.7223 28.6062C67.9412 28.7 68.1769 28.7468 68.4294 28.7468L72.0532 28.7468C72.8024 28.7468 73.5052 28.8918 74.1618 29.1816C74.8268 29.4629 75.4034 29.855 75.8917 30.3582C76.3883 30.8525 76.7755 31.4365 77.0533 32.1099Q77.1458 32.325 77.2184 32.5464L77.2184 32.5466Q77.4826 33.3528 77.4826 34.2456C77.4826 35.0042 77.3395 35.7161 77.0533 36.3811C76.7755 37.0461 76.3883 37.6301 75.8917 38.1331C75.4034 38.6274 74.8268 39.0195 74.1618 39.3096C73.5052 39.5994 72.8024 39.7441 72.0532 39.7441L64.0101 39.7441L64.0101 36.0742L72.0532 36.0742C72.3057 36.0742 72.5414 36.0273 72.7603 35.9336C72.9791 35.8398 73.1685 35.7119 73.3285 35.5498C73.4968 35.3794 73.6273 35.1833 73.7199 34.9617C73.8125 34.74 73.8588 34.5012 73.8588 34.2456C73.8588 33.9897 73.8125 33.751 73.7199 33.5293C73.6273 33.3079 73.4968 33.116 73.3285 32.9539C73.1685 32.7834 72.9791 32.6514 72.7603 32.5576C72.5414 32.4639 72.3057 32.417 72.0532 32.417L68.4294 32.417C67.6802 32.417 66.9774 32.272 66.3207 31.9822Q65.6533 31.6875 65.0961 31.252Q64.8311 31.0447 64.5909 30.8057Q64.4035 30.6125 64.2359 30.4036Q63.7487 29.7959 63.4293 29.0537Q63.3114 28.7761 63.2258 28.489Q63 27.731 63 26.9053ZM164.214 21.4067L158.267 39.7441L154.643 39.7441L148.721 21.4067L152.838 21.4067L156.449 33.6445L160.073 21.4067L164.214 21.4067ZM106.448 36.3938C106.583 36.4365 106.717 36.4663 106.852 36.4834C106.986 36.4919 107.121 36.4961 107.256 36.4961C107.593 36.4961 107.917 36.4492 108.228 36.3555C108.54 36.2617 108.83 36.1296 109.099 35.959C109.377 35.78 109.621 35.5669 109.832 35.3196C110.051 35.064 110.227 34.7827 110.362 34.4756L112.887 37.0461C112.567 37.5063 112.197 37.9199 111.776 38.2864C111.364 38.6531 110.913 38.9641 110.425 39.22C109.945 39.4756 109.436 39.6675 108.897 39.7954C108.367 39.9319 107.82 40 107.256 40C106.305 40 105.408 39.821 104.566 39.4629C103.733 39.105 103.001 38.6062 102.369 37.9668C101.746 37.3274 101.254 36.5686 100.892 35.6904C100.53 34.804 100.349 33.832 100.349 32.7749C100.349 31.6921 100.53 30.7034 100.892 29.8081C101.254 28.9131 101.746 28.1501 102.369 27.5193C103.001 26.8884 103.733 26.3982 104.566 26.0486C105.408 25.699 106.305 25.5244 107.256 25.5244C107.82 25.5244 108.371 25.5925 108.91 25.729C109.449 25.8652 109.958 26.0613 110.438 26.3171C110.926 26.573 111.38 26.8884 111.801 27.2634C112.222 27.6301 112.593 28.0435 112.913 28.5039L106.448 36.3938ZM127.648 39.7441L126.814 39.7441L125.476 37.8645C125.148 38.1628 124.798 38.4441 124.428 38.7085C124.066 38.9641 123.683 39.1902 123.279 39.3862C122.875 39.5737 122.458 39.7229 122.029 39.8337C121.608 39.9446 121.179 40 120.741 40Q119.471 40 118.331 39.615L118.329 39.6143Q118.189 39.5671 118.052 39.5142Q117.306 39.2241 116.668 38.7798L116.668 38.7795Q116.237 38.479 115.854 38.1074C115.232 37.4851 114.739 36.7263 114.377 35.8313Q113.834 34.4885 113.834 32.7749C113.834 31.7092 114.015 30.7332 114.377 29.8464C114.739 28.9514 115.232 28.1841 115.854 27.5447Q116.293 27.1008 116.796 26.75Q117.38 26.343 118.052 26.0613Q118.377 25.9231 118.713 25.8203Q119.682 25.5244 120.741 25.5244C121.179 25.5244 121.612 25.5796 122.042 25.6904C122.471 25.8013 122.887 25.9548 123.292 26.1509C123.696 26.3469 124.079 26.5771 124.441 26.8416Q124.996 27.2378 125.476 27.6982L126.814 26.0742L127.648 26.0742L127.648 39.7441ZM192.535 36.3938C192.67 36.4365 192.805 36.4663 192.939 36.4834C193.074 36.4919 193.209 36.4961 193.343 36.4961Q193.799 36.4961 194.223 36.3818L194.224 36.3816Q194.27 36.3691 194.316 36.3555C194.627 36.2617 194.917 36.1296 195.187 35.959C195.465 35.78 195.709 35.5669 195.919 35.3196C196.138 35.064 196.315 34.7827 196.449 34.4756L198.975 37.0461C198.655 37.5063 198.285 37.9199 197.864 38.2864C197.451 38.6531 197.001 38.9641 196.513 39.22C196.033 39.4756 195.523 39.6675 194.985 39.7954Q194.955 39.803 194.925 39.8105Q194.158 40 193.343 40C192.392 40 191.496 39.821 190.654 39.4629C189.821 39.105 189.088 38.6062 188.457 37.9668C187.834 37.3274 187.342 36.5686 186.98 35.6904C186.618 34.804 186.437 33.832 186.437 32.7749C186.437 31.6921 186.618 30.7034 186.98 29.8081C187.342 28.9131 187.834 28.1501 188.457 27.5193C189.088 26.8884 189.821 26.3982 190.654 26.0486C191.496 25.699 192.392 25.5244 193.343 25.5244C193.907 25.5244 194.459 25.5925 194.997 25.729C195.536 25.8652 196.045 26.0613 196.525 26.3171C197.013 26.573 197.468 26.8884 197.889 27.2634Q198.159 27.499 198.402 27.7605L198.403 27.7615Q198.726 28.1096 199 28.5039L192.535 36.3938ZM147.484 39.7441L144.049 39.7441L144.049 31.0486C144.049 30.8098 144.003 30.584 143.911 30.3708Q143.842 30.1978 143.741 30.0471L143.74 30.0471Q143.654 29.9194 143.544 29.8081C143.385 29.6462 143.199 29.5227 142.989 29.4373Q142.872 29.3855 142.751 29.3528Q142.543 29.2966 142.32 29.2966C142.084 29.2966 141.861 29.3435 141.65 29.4373C141.448 29.5227 141.267 29.6462 141.108 29.8081C140.956 29.9702 140.834 30.1577 140.741 30.3708C140.657 30.584 140.615 30.8098 140.615 31.0486L140.615 39.7441L137.168 39.7441L137.168 31.0486C137.168 30.8098 137.122 30.584 137.029 30.3708C136.945 30.1577 136.823 29.9702 136.663 29.8081C136.503 29.6462 136.318 29.5227 136.107 29.4373C135.897 29.3435 135.674 29.2966 135.438 29.2966C135.203 29.2966 134.979 29.3435 134.769 29.4373C134.567 29.5227 134.386 29.6462 134.226 29.8081C134.075 29.9702 133.953 30.1577 133.86 30.3708C133.776 30.584 133.734 30.8098 133.734 31.0486L133.734 39.7441L130.287 39.7441L130.287 26.0486L131.12 26.0486L132.054 27.0972C132.534 26.688 133.06 26.3726 133.633 26.1509Q134.087 25.9709 134.558 25.8848L134.558 25.8848Q134.991 25.8057 135.438 25.8057C136.07 25.8057 136.684 25.925 137.282 26.1636C137.888 26.4023 138.418 26.8159 138.873 27.4041C139.083 27.1143 139.323 26.8669 139.592 26.6624C139.862 26.4578 140.144 26.2915 140.438 26.1636C140.741 26.0359 141.053 25.9463 141.373 25.895C141.693 25.8354 142.008 25.8057 142.32 25.8057Q143.176 25.8057 143.945 26.0664L143.946 26.0669Q144.14 26.1326 144.327 26.2148Q145.008 26.509 145.558 26.9614L145.558 26.9617Q145.773 27.1387 145.969 27.3401C146.44 27.8091 146.81 28.3633 147.08 29.0024C147.349 29.6418 147.484 30.324 147.484 31.0486L147.484 39.7441ZM94.0612 39.7441L90.6141 39.7441L90.6141 26.0486L91.4475 26.0486L92.5839 27.6726Q92.9791 27.3086 93.4255 27.0254L93.4257 27.0254L93.4257 27.0251Q93.9204 26.7112 94.4779 26.4961C95.1849 26.2148 95.9172 26.0742 96.6748 26.0742L99.7179 26.0742L99.7179 29.5525L96.6748 29.5525C96.3129 29.5525 95.972 29.6206 95.6521 29.7571C95.3323 29.8936 95.0544 30.0811 94.8187 30.3196C94.5831 30.5583 94.3979 30.8398 94.2632 31.1636C94.1285 31.4875 94.0612 31.833 94.0612 32.1995L94.0612 39.7441ZM169.063 39.7441L165.59 39.7441L165.59 26.0486L169.063 26.0486L169.063 39.7441ZM108.215 29.1943C108.056 29.1348 107.896 29.0964 107.736 29.0793C107.584 29.0623 107.424 29.0537 107.256 29.0537C106.784 29.0537 106.338 29.1433 105.917 29.3223C105.505 29.4927 105.143 29.74 104.832 30.064C104.529 30.3879 104.289 30.78 104.112 31.2405C103.935 31.6921 103.847 32.2039 103.847 32.7749C103.847 32.9028 103.851 33.0479 103.859 33.2097C103.876 33.3716 103.897 33.5378 103.922 33.7085C103.956 33.8704 103.994 34.0281 104.036 34.1816C104.078 34.335 104.133 34.4714 104.2 34.5908L108.215 29.1943ZM124.175 32.7749C124.175 32.2976 124.083 31.8372 123.898 31.3938C123.721 30.9421 123.477 30.5457 123.165 30.2046C122.854 29.855 122.488 29.5781 122.067 29.3733C121.654 29.1602 121.212 29.0537 120.741 29.0537C120.27 29.0537 119.823 29.1348 119.403 29.2966C118.99 29.4587 118.628 29.6973 118.317 30.0127C118.014 30.3281 117.774 30.7205 117.597 31.1892C117.42 31.6497 117.332 32.1782 117.332 32.7749Q117.332 33.6702 117.597 34.3733C117.774 34.8337 118.014 35.2217 118.317 35.5371C118.628 35.8525 118.99 36.0913 119.403 36.2532C119.823 36.4153 120.27 36.4961 120.741 36.4961C121.212 36.4961 121.654 36.3938 122.067 36.1892C122.488 35.9761 122.854 35.699 123.165 35.3582C123.477 35.0085 123.721 34.6121 123.898 34.1687C124.083 33.717 124.175 33.2524 124.175 32.7749ZM181.765 32.7749C181.765 32.2463 181.672 31.7561 181.487 31.3044C181.31 30.844 181.066 30.4475 180.755 30.115C180.443 29.7827 180.077 29.5227 179.656 29.335C179.244 29.1475 178.802 29.0537 178.33 29.0537C177.859 29.0537 177.413 29.1602 176.992 29.3733C176.58 29.5781 176.218 29.855 175.906 30.2046C175.595 30.5457 175.351 30.9421 175.174 31.3938C174.997 31.8372 174.909 32.2976 174.909 32.7749C174.909 33.3035 174.997 33.7937 175.174 34.2456C175.351 34.6973 175.595 35.0896 175.906 35.4219C176.218 35.7544 176.58 36.0188 176.992 36.2148C177.413 36.4023 177.859 36.4961 178.33 36.4961C178.802 36.4961 179.244 36.4023 179.656 36.2148C180.077 36.0188 180.443 35.7544 180.755 35.4219C181.066 35.0896 181.31 34.6973 181.487 34.2456C181.672 33.7937 181.765 33.3035 181.765 32.7749ZM194.303 29.1943C194.143 29.1348 193.983 29.0964 193.823 29.0793C193.672 29.0623 193.512 29.0537 193.343 29.0537C192.872 29.0537 192.426 29.1433 192.005 29.3223C191.592 29.4927 191.23 29.74 190.919 30.064C190.616 30.3879 190.376 30.78 190.199 31.2405C190.023 31.6921 189.934 32.2039 189.934 32.7749C189.934 32.9028 189.938 33.0479 189.947 33.2097C189.964 33.3716 189.985 33.5378 190.01 33.7085C190.044 33.8704 190.082 34.0281 190.124 34.1816C190.166 34.335 190.22 34.4714 190.288 34.5908L194.303 29.1943Z" fill="#FFFFFF" fill-opacity="1.000000" fill-rule="evenodd"/>
</svg>
