<svg width="72.000000" height="72.000000" viewBox="0 0 72 72" fill="none" xmlns="http://www.w3.org/2000/svg" xmlns:xlink="http://www.w3.org/1999/xlink">
	<desc>
			Created with Pixso.
	</desc>
	<defs>
		<filter id="filter_184_845_dd" x="26.395020" y="17.602783" width="19.654907" height="36.005615" filterUnits="userSpaceOnUse" color-interpolation-filters="sRGB">
			<feFlood flood-opacity="0" result="BackgroundImageFix"/>
			<feGaussianBlur in="BackgroundImage" stdDeviation="4"/>
			<feComposite in2="SourceAlpha" operator="in" result="effect_backgroundBlur_1"/>
			<feBlend mode="normal" in="SourceGraphic" in2="effect_backgroundBlur_1" result="shape"/>
		</filter>
		<clipPath id="clip184_844">
			<rect id="Frame" width="19.641476" height="36.000000" transform="translate(26.400024 17.600098)" fill="white" fill-opacity="0"/>
		</clipPath>
		<clipPath id="clip184_843">
			<rect id="Icon" width="40.000000" height="40.000000" transform="translate(16.000000 16.000000)" fill="white" fill-opacity="0"/>
		</clipPath>
	</defs>
	<rect id="Icon Container" rx="6.000000" width="71.000000" height="71.000000" transform="translate(0.500000 0.500000)" fill="#141414" fill-opacity="1.000000"/>
	<g clip-path="url(#clip184_843)">
		<rect id="Frame" width="19.641476" height="36.000000" transform="translate(26.400024 17.600098)" fill="#FFFFFF" fill-opacity="0"/>
		<g clip-path="url(#clip184_844)">
			<g filter="url(#filter_184_845_dd)">
				<path id="Vector" d="M26.4 35.6C26.4 30.9566 26.3888 26.302 26.4 21.6587C26.4 19.7474 27.3669 18.3532 29.0646 17.8023C29.4694 17.6674 29.9078 17.6112 30.3351 17.6112C34.2589 17.6 38.1826 17.6 42.0952 17.6112C44.3776 17.6225 46.0415 19.2752 46.0415 21.5463C46.0527 30.9229 46.0527 40.2883 46.0415 49.6649C46.0415 51.936 44.3776 53.6 42.1064 53.6C38.2277 53.6112 34.3488 53.6112 30.47 53.6C28.0415 53.6 26.4225 52.0035 26.4113 49.5525C26.3888 44.8979 26.4 40.2546 26.4 35.6ZM36.2263 20.8717C35.4619 20.8717 34.6974 20.8717 33.9215 20.8717C33.3145 20.8829 32.9772 21.164 32.9659 21.6587C32.9547 22.1646 33.2695 22.5132 33.8541 22.5132C35.4281 22.5356 36.9908 22.5356 38.5649 22.5132C39.1271 22.5019 39.5093 22.1196 39.4868 21.6587C39.4644 21.1865 39.0934 20.8717 38.5199 20.8717C37.7554 20.8717 36.9908 20.8717 36.2263 20.8717ZM36.2263 47.079C35.3044 47.079 34.5736 47.8098 34.585 48.7093C34.5962 49.6087 35.3494 50.3395 36.2489 50.3283C37.1259 50.317 37.8341 49.5975 37.8341 48.7093C37.8453 47.7761 37.1483 47.079 36.2263 47.079Z" fill="#E60000" fill-opacity="1.000000" fill-rule="nonzero"/>
			</g>
			<path id="Vector" d="M26.4 35.6C26.4 34.0526 26.3987 32.504 26.3975 30.955C26.395 27.8556 26.3925 24.7547 26.4 21.6587C26.4 19.7474 27.3669 18.3532 29.0646 17.8023C29.4694 17.6674 29.9078 17.6112 30.3351 17.6112C34.2589 17.6 38.1826 17.6 42.0952 17.6112C44.3776 17.6225 46.0415 19.2752 46.0415 21.5463C46.0527 30.9229 46.0527 40.2883 46.0415 49.6649C46.0415 51.936 44.3776 53.6 42.1064 53.6Q39.1974 53.6084 36.2882 53.6084Q33.3792 53.6084 30.47 53.6C28.0415 53.6 26.4225 52.0035 26.4113 49.5525C26.3944 46.0619 26.3965 42.5776 26.3986 39.0902C26.3993 37.9273 26.4 36.764 26.4 35.6ZM27.3958 28.6308L27.4 21.6593L27.4 21.6587Q27.4 20.5383 27.9181 19.7892Q28.0209 19.6405 28.1426 19.5093Q28.6156 18.9994 29.3732 18.7535Q29.8003 18.6112 30.3351 18.6112L42.0952 18.6112Q42.7432 18.6144 43.3013 18.8391Q43.6711 18.988 43.9734 19.2236Q44.1021 19.3239 44.2185 19.4398Q44.3552 19.5759 44.4698 19.7286Q44.6819 20.0108 44.8186 20.3494Q45.0415 20.9012 45.0415 21.5463L45.0499 35.6058L45.0415 49.6643Q45.0415 50.3105 44.8185 50.8643Q44.6782 51.2124 44.4594 51.501Q44.349 51.6466 44.2185 51.777Q44.088 51.9075 43.9424 52.0179Q43.6538 52.2367 43.3058 52.3769Q42.7521 52.6 42.1064 52.6L36.3683 52.6084L30.4714 52.6Q29.7523 52.6 29.1688 52.3777Q28.7096 52.2028 28.3616 51.9Q28.2985 51.8452 28.2391 51.7861Q28.1802 51.7276 28.1254 51.6654Q27.8193 51.3181 27.6413 50.858Q27.4146 50.2722 27.4113 49.5479L27.3972 42.5748L27.4 35.6004L27.3958 28.6308ZM36.2262 19.8717L33.9215 19.8717L33.9031 19.8718Q33.1848 19.8851 32.6964 20.2269Q32.6383 20.2676 32.5834 20.3129Q32.4324 20.4377 32.317 20.5896Q32.2008 20.7424 32.1207 20.9226Q32.1122 20.9417 32.1042 20.9611Q31.9744 21.2732 31.9662 21.636Q31.958 22.0045 32.0719 22.3304Q32.0739 22.3361 32.076 22.3419Q32.1556 22.565 32.2863 22.7525Q32.3719 22.8752 32.4794 22.9827Q32.5644 23.0677 32.6594 23.1394Q32.8681 23.297 33.1252 23.3905Q33.4623 23.5132 33.8541 23.5132Q36.2095 23.5469 38.5792 23.513Q38.9489 23.5057 39.2767 23.385Q39.2946 23.3784 39.3123 23.3715Q39.5573 23.2761 39.7609 23.125Q39.8511 23.0581 39.9332 22.9802Q40.0966 22.8253 40.2136 22.6411Q40.2965 22.5106 40.3562 22.3653Q40.4238 22.2009 40.4567 22.0297Q40.4961 21.8246 40.4856 21.61Q40.473 21.3455 40.391 21.1046Q40.3549 20.9986 40.3053 20.8972Q40.2295 20.7424 40.1272 20.6079Q40.0054 20.4476 39.8457 20.3162Q39.7959 20.2751 39.7434 20.2378Q39.5055 20.0685 39.2134 19.9754Q38.8877 19.8717 38.5199 19.8717L36.2263 19.8717L36.2262 19.8717ZM38.5199 20.8717L33.9215 20.8717C33.3145 20.8829 32.9772 21.164 32.9659 21.6587C32.9547 22.1646 33.2695 22.5132 33.8541 22.5132C35.4281 22.5356 36.9908 22.5356 38.5649 22.5132C39.1271 22.5019 39.5093 22.1196 39.4868 21.6587C39.4644 21.1865 39.0934 20.8717 38.5199 20.8717ZM33.64 48.152Q33.5813 48.4303 33.585 48.7218Q33.5883 48.9887 33.6438 49.2442Q33.6998 49.5019 33.8087 49.7481Q33.9041 49.9633 34.0334 50.1555Q34.1863 50.3824 34.3867 50.5773Q34.5839 50.7689 34.8108 50.9138Q35.0096 51.0406 35.2312 51.1316Q35.4802 51.2338 35.7393 51.2829Q35.9954 51.3315 36.2614 51.3282Q36.5392 51.3246 36.8041 51.2644Q37.0406 51.2107 37.267 51.1118Q37.4846 51.0167 37.6785 50.8862Q37.8965 50.7394 38.0842 50.5478Q38.2642 50.3644 38.4028 50.1539Q38.5374 49.9495 38.6331 49.7195Q38.7251 49.4981 38.775 49.2675Q38.8341 48.9948 38.8341 48.7093Q38.8378 48.4121 38.7783 48.1281Q38.7318 47.9057 38.6465 47.6913Q38.5403 47.4242 38.382 47.1928Q38.2535 47.0049 38.0907 46.8406Q37.9286 46.6768 37.7428 46.5469Q37.5133 46.3864 37.2477 46.2774Q37.0991 46.2164 36.9453 46.1742Q36.5989 46.079 36.2263 46.079Q35.9153 46.079 35.62 46.1473Q35.403 46.1974 35.1945 46.2843Q34.9464 46.3878 34.7285 46.5357Q34.5264 46.6728 34.3502 46.8481Q34.1542 47.0432 34.0062 47.2697Q33.8767 47.4679 33.7841 47.6901Q33.6897 47.9164 33.64 48.152ZM36.2263 47.079C35.3044 47.079 34.5736 47.8098 34.585 48.7093C34.5962 49.6087 35.3494 50.3395 36.2489 50.3283C37.1259 50.317 37.8341 49.5975 37.8341 48.7093C37.8453 47.7761 37.1483 47.079 36.2263 47.079Z" fill="#E60000" fill-opacity="1.000000" fill-rule="evenodd"/>
		</g>
	</g>
	<rect id="Icon Container" rx="6.000000" width="71.000000" height="71.000000" transform="translate(0.500000 0.500000)" stroke="#1F1F1F" stroke-opacity="1.000000" stroke-width="1.000000"/>
</svg>
